# xmcd
#
# Track frame offsets:
#	150
#	21399
#	37594
#	54913
#	70628
#	83773
#	114631
#	128129
#	144199
#	159516
#	185322
#	198426
#	212638
#	229613
#	243486
#	267397
#	287310
#	301648
#
# Disc length: 4277 seconds
#
# Revision: 2
# Processed by: cddbd v1.4PL0 Copyright (c) Steve Scherf et al.
# Submitted via: audiograbber 1.82.01
#
DISCID=e410b312
DTITLE=[Yurik] - Æàæäà ñêîðîñòè XXXXII
DYEAR=2003
DGENRE=
TTITLE0=Evanescence Meets Axel Force - Bring Me To Life (Eurotrance)
TTITLE1=Scooter - Maria I Like It Loud (Radio Edit)
TTITLE2=Scatman John - Scatman 2003 (Club Mix Short Version)
TTITLE3=Masterboy - Feel The Heat Of The Night 2003
TTITLE4=Culture Beat - Headbangers
TTITLE5=Captain Hollywood - Flying High (A2 Bogroom Remix)
TTITLE6=ITT - There Is A Trip
TTITLE7=Ziggy X - Bassdusche (Videop Mix)
TTITLE8=Creambase 1 - Fiddle 2003 (Bellini Brothers Radio cut)
TTITLE9=Rocco - Generation Of Love (Rave Mix)
TTITLE10=Drunkenmunky - The Èootleg
TTITLE11=DJ Shog - Another World (Voodoo and Serano Remix Edit)
TTITLE12=The Coach And The Player - Techno Âesire (Radio Edit)
TTITLE13=Double You - Everything I Do (Radio Techno Mix)
TTITLE14=Jan Wayne Meets Danielle - 1, 2, 3 Keep The Spirit Alive
TTITLE15=Ravers On Dope - Big Bass Ârum (Alex Butcher Remix)
TTITLE16=Groove Crew International - Dancehall (Groove Crew Radio Mix)
TTITLE17=Molella - Jolly
EXTD=
EXTT0=
EXTT1=
EXTT2=
EXTT3=
EXTT4=
EXTT5=
EXTT6=
EXTT7=
EXTT8=
EXTT9=
EXTT10=
EXTT11=
EXTT12=
EXTT13=
EXTT14=
EXTT15=
EXTT16=
EXTT17=
PLAYORDER=
